# xmcd
#
# Track frame offsets: 
#        150
#        14940
#        32986
#        53313
#        70090
#        87640
#        100573
#        118566
#        133181
#        153108
#
# Disc length: 2290 seconds
#
# Revision: 0
# Processed by: cddbd v1.5.2PL0 Copyright (c) Steve Scherf et al.
# Submitted via: ExactAudioCopy v0.99pb4
#
DISCID=7e08f00a
DTITLE=Terri Lynn and Thunder Blues - Blue Storm
DYEAR=2009
DGENRE=Blues
TTITLE0=If You Want the Rose [Pederson, Hargrove]
TTITLE1=Me, My Heart, and I [Hunter, Whitehead]
TTITLE2=Rainbow in My Tears [Keller]
TTITLE3=Moody Rudy [Keller, Kaye, Wendell]
TTITLE4=Lay Me Down to Weep [Wendell, Keller]
TTITLE5=Caught a Touch of Your Love [Keller]
TTITLE6=24 Hour Love [Wunsch]
TTITLE7=Smooth and Bluesy [Wendell, Wendell]
TTITLE8=With You [Lynn, Lanich]
TTITLE9=Blue Storm [Martin]
EXTD=
EXTT0=
EXTT1=
EXTT2=
EXTT3=
EXTT4=
EXTT5=
EXTT6=
EXTT7=
EXTT8=
EXTT9=
PLAYORDER=
